<?xml version="1.0" encoding="UTF-8"?>
<svg id="Layer_1" data-name="Layer 1" xmlns="http://www.w3.org/2000/svg" version="1.1" xmlns:xlink="http://www.w3.org/1999/xlink" viewBox="0 0 595.28 841.89">
  <defs>
    <style>
      .cls-1 {
        fill: #fdd3b6;
      }

      .cls-1, .cls-2, .cls-3, .cls-4, .cls-5, .cls-6, .cls-7, .cls-8 {
        stroke-width: 0px;
      }

      .cls-1, .cls-3, .cls-4, .cls-5, .cls-6, .cls-7, .cls-8 {
        fill-rule: evenodd;
      }

      .cls-2, .cls-9 {
        fill: #231f20;
      }

      .cls-9 {
        font-family: Queensides-Light, Queensides;
        font-size: 27.69px;
        font-weight: 300;
      }

      .cls-10 {
        opacity: .99;
      }

      .cls-3 {
        fill: #dfa3a6;
      }

      .cls-4 {
        fill: #bca1c7;
        filter: url(#outer-glow-1);
      }

      .cls-5 {
        fill: #c79eb1;
      }

      .cls-6 {
        fill: #a78ba7;
      }

      .cls-7 {
        fill: #fbc3b6;
      }

      .cls-8 {
        fill: #e9ccb1;
      }
    </style>
    <filter id="outer-glow-1" filterUnits="userSpaceOnUse">
      <feOffset dx="0" dy="0"/>
      <feGaussianBlur result="blur" stdDeviation="3"/>
      <feFlood flood-color="#a390ba" flood-opacity=".58"/>
      <feComposite in2="blur" operator="in"/>
      <feComposite in="SourceGraphic"/>
    </filter>
  </defs>
  <g>
    <g class="cls-10">
      <g>
        <path class="cls-2" d="M177.34,258.92c-3.82,2.69-7.49,5.53-10.99,8.53-.14.11-.28.22-.42.33-5.99-6.44-12.17-12.8-18.55-19.08.34-.24,4.38-4.02,13.25-10.28.25.3.51.59.76.89-4.25,2.97-8.34,6.11-12.25,9.41,2.59,2.59,5.15,5.2,7.68,7.81,3.67-3.1,7.5-6.05,11.49-8.84.24.29.49.59.73.88-3.96,2.78-7.77,5.71-11.42,8.79,2.83,2.94,5.62,5.9,8.36,8.88,3.4-2.88,6.95-5.62,10.64-8.22.24.3.48.6.72.9Z"/>
        <path class="cls-2" d="M189.45,251.19c-.3.17-.59.34-.89.51-8.23-5.23-17.04-10.04-26.4-14.35.39-.27.79-.54,1.19-.8,8.74,4.1,16.99,8.64,24.74,13.54-1.4-8.57-2.44-17.25-3.03-26,.43-.22.86-.43,1.3-.65.56,9.35,1.62,18.6,3.09,27.75Z"/>
        <path class="cls-2" d="M215.4,239.05c-4.57,1.7-9.05,3.57-13.4,5.62-.17.07-.34.15-.51.22-4.24-7.48-8.64-14.93-13.18-22.34.41-.15,5.57-2.8,16.26-6.77.17.34.33.68.5,1.02-5.11,1.87-10.12,3.93-14.99,6.17,1.83,3.05,3.65,6.11,5.43,9.17,4.56-2.11,9.25-4.04,14.03-5.81.16.33.32.67.48,1-4.75,1.75-9.41,3.68-13.95,5.77,2,3.44,3.97,6.88,5.9,10.33,4.22-1.96,8.55-3.76,12.96-5.4.16.34.31.68.47,1.02Z"/>
        <path class="cls-2" d="M234.99,232.96c-.46.12-.92.23-1.37.35-3.4-2.78-6.96-5.49-10.65-8.11-1.08.42-2.19.81-3.33,1.17-.67.21-1.34.42-2,.63-.5.15-1.1.34-1.78.58,1.43,3.26,2.84,6.53,4.22,9.8-.37.13-.74.25-1.11.38-3.38-7.81-6.87-15.6-10.49-23.37.24-.08.48-.17.72-.25.87-.3,1.62-.55,2.25-.77.75-.26,1.5-.51,2.26-.76,1.26-.4,2.52-.71,3.78-.94,1.26-.23,2.54-.3,3.84-.22,1.3.09,2.64.39,4.01.92,1.52.61,2.6,1.5,3.25,2.66.18.31.32.62.43.95.22.64.31,1.3.28,2-.05,1.03-.37,2.05-.95,3.05-.84,1.44-2.22,2.63-4.14,3.62,3.52,2.53,6.9,5.13,10.14,7.8.22.17.43.34.65.51ZM219.12,225.37c1.32-.42,2.58-.87,3.78-1.36.07-.03.14-.06.19-.07.03-.02.07-.04.11-.06.04-.02.09-.04.17-.08,1.79-.88,3.06-1.95,3.81-3.24.48-.86.75-1.73.79-2.6.03-.57-.05-1.12-.24-1.65-.09-.27-.21-.53-.36-.78-.55-.93-1.44-1.65-2.68-2.16-1.22-.47-2.43-.73-3.6-.8-1.17-.07-2.34,0-3.5.22-1.16.22-2.32.51-3.48.87-1.3.43-2.6.87-3.89,1.33,1.75,3.85,3.48,7.71,5.18,11.57.52-.18,1.13-.37,1.82-.59.64-.2,1.28-.4,1.92-.6Z"/>
        <path class="cls-2" d="M271.64,227.2c-.41.03-.82.05-1.23.08-7.77-7.18-16.53-13.95-26.28-20.15,1.82,7.57,3.58,15.15,5.28,22.73-.41.07-.81.14-1.22.22-1.89-8.14-3.86-16.28-5.89-24.41.47-.08.94-.17,1.41-.25,9.84,6.19,18.68,12.95,26.53,20.13-.71-7.69-1.45-15.37-2.22-23.06.47-.03.95-.07,1.42-.1.75,8.27,1.48,16.53,2.18,24.8Z"/>
        <path class="cls-2" d="M295.93,227.03c-5.04-.25-10.1-.32-15.14-.21-.2,0-.39,0-.59,0-.27-8.28-.54-16.57-.83-24.85.45.02,6.61-.33,18.45.22-.03.36-.05.73-.08,1.09-5.65-.28-11.31-.37-16.97-.27.09,3.4.18,6.79.27,10.19,5.29-.1,10.59-.02,15.87.25-.02.36-.05.72-.07,1.08-5.25-.26-10.51-.34-15.77-.24.1,3.81.19,7.63.29,11.44,4.88-.09,9.77-.02,14.64.23-.02.36-.05.73-.07,1.09Z"/>
        <path class="cls-2" d="M324.17,230.39c-.87-7.94-2.07-15.89-3.64-23.83-4.63,7.03-8.82,14.18-12.6,21.42-.38-.05-.76-.09-1.14-.14-1.84-8.55-4.1-17.07-6.82-25.54.5.03.99.07,1.49.11,2.44,7.83,4.49,15.69,6.18,23.58,3.84-7.33,8.09-14.57,12.79-21.7.36.05.73.1,1.09.16,1.59,8.04,2.8,16.09,3.68,24.14,4.53-6.98,9.48-13.85,14.88-20.56.48.11.95.22,1.43.33-5.91,7.24-11.3,14.66-16.2,22.23-.37-.07-.75-.13-1.12-.2Z"/>
        <path class="cls-2" d="M355.67,239.15c-1.62-.61-2.95-1.51-3.99-2.72-1.04-1.21-1.72-2.57-2.04-4.09-.31-1.52-.18-3.04.43-4.56.11-.27.23-.53.35-.8.39.14.78.27,1.17.41-.11.26-.23.51-.34.77-.56,1.35-.69,2.69-.41,4.02.28,1.33.88,2.52,1.79,3.58.92,1.06,2.08,1.85,3.5,2.38,1.07.4,2.15.6,3.26.6,1.11,0,2.18-.18,3.21-.54,1.23-.42,2.23-.99,3.01-1.71.78-.72,1.45-1.61,2.02-2.67,2.56-4.8,5.18-9.59,7.85-14.37.41.17.82.35,1.23.52-2.7,4.76-5.35,9.52-7.94,14.3-1.32,2.44-3.26,4.08-5.76,4.97-1.17.4-2.38.6-3.65.6-1.26,0-2.49-.23-3.7-.68Z"/>
        <path class="cls-2" d="M380.38,251.3c-2.21-1.26-3.93-2.89-5.18-4.93-1.25-2.04-1.95-4.24-2.08-6.61-.12-2.37.41-4.66,1.69-6.87,1.28-2.21,3.09-3.94,5.47-5.13,2.38-1.19,5.02-1.78,7.87-1.73,2.86.05,5.62.81,8.2,2.27,2.59,1.46,4.52,3.36,5.76,5.63,1.24,2.27,1.73,4.63,1.52,7.05-.21,2.42-1.19,4.63-2.83,6.65-1.63,2-3.65,3.46-6.01,4.43-2.37.97-4.79,1.39-7.32,1.29-2.53-.1-4.86-.78-7.1-2.05ZM381.01,250.35c2.06,1.17,4.22,1.8,6.55,1.88,2.33.09,4.57-.3,6.74-1.2,2.17-.89,4.02-2.24,5.51-4.09,1.13-1.4,1.9-2.9,2.29-4.52.39-1.62.41-3.25.05-4.89-.35-1.64-1.07-3.19-2.17-4.63-1.1-1.45-2.54-2.68-4.3-3.67-2.34-1.32-4.85-2.01-7.46-2.07-2.61-.06-5.02.47-7.21,1.55-2.19,1.08-3.87,2.66-5.07,4.7-1.19,2.02-1.7,4.12-1.59,6.3.11,2.18.75,4.2,1.89,6.08,1.15,1.88,2.73,3.39,4.77,4.55Z"/>
        <path class="cls-2" d="M398.81,262.86c-.3-.23-.6-.46-.9-.69,2.82-3.34,5.69-6.67,8.61-9.98.26-1.84.44-3.26.56-4.25.12-.99.21-1.75.26-2.29.05-.54.11-1.05.16-1.54.04-.52.11-1.25.2-2.2.09-.95.21-2.36.33-4.23,0-.23.02-.47.02-.7.43.28.86.57,1.28.85-.35,4.62-.85,9.22-1.48,13.77,4.7-1.45,9.53-2.74,14.46-3.87.37.32.74.64,1.11.96-5.45,1.21-10.77,2.63-15.95,4.23-2.94,3.29-5.83,6.6-8.67,9.93Z"/>
      </g>
    </g>
    <g>
      <g>
        <g>
          <g>
            <path class="cls-3" d="M287.78,460.62c-18.45-18.31-36.59-28.29-48.38-33.64-15.11-6.87-26.46-12.02-41.89-11.25-16.1.8-20.97,7.28-32.56,5.49-8.78-1.36-20.68-7.35-32.97-28.89-.81,32.8,16.11,63.04,43.72,78.66,20.46,11.58,46.66,13.63,75.59,3.47-8.09,2.33-33.6,8.55-61.41-3.38-41.62-17.86-52.28-60.89-53.4-65.75,6.22,8.64,16.33,19.58,30.47,21.68,11.51,1.71,14.13-4.15,28.26-6.13,26.27-3.69,50.75,11.83,73.86,26.48,8.25,5.23,14.65,10.06,18.7,13.27Z"/>
            <g>
              <path class="cls-8" d="M309.78,461.83c13-14.81,26.28-23.86,35.46-29.13,12.52-7.2,24.36-14.3,40.72-14.94,16.11-.63,21.54,5.39,32.92,2.57,8.63-2.13,19.95-9.16,30.27-31.71,3.73,32.6-10.43,64.22-36.54,82.24-19.35,13.36-45.26,17.73-74.98,10.19,8.27,1.6,34.23,5.52,60.86-8.84,39.86-21.5,46.65-65.3,47.33-70.25-5.43,9.16-14.52,20.95-28.42,24.31-11.31,2.73-14.44-2.87-28.7-3.59-26.78-1.35-50.27,16.93-71.21,32.95-3.3,2.52-5.94,4.7-7.71,6.19Z"/>
              <path class="cls-3" d="M309.78,461.83c13-14.81,26.28-23.86,35.46-29.13,12.52-7.2,24.36-14.3,40.72-14.94,16.11-.63,21.54,5.39,32.92,2.57,8.63-2.13,19.95-9.16,30.27-31.71,3.73,32.6-10.43,64.22-36.54,82.24-19.35,13.36-45.26,17.73-74.98,10.19,8.27,1.6,34.23,5.52,60.86-8.84,39.86-21.5,46.65-65.3,47.33-70.25-5.43,9.16-14.52,20.95-28.42,24.31-11.31,2.73-14.44-2.87-28.7-3.59-26.78-1.35-50.27,16.93-71.21,32.95-3.3,2.52-5.94,4.7-7.71,6.19Z"/>
            </g>
            <path class="cls-6" d="M229.54,287.45c3.66,2.17,10.44,6.92,15.19,15.57,2.32,4.21,3.51,8.18,4.16,11.28-1.78-3.16-4.83-7.64-9.78-11.76-3.16-2.64-6.25-4.42-8.77-5.63-6.29,7.38-17.83,23.21-20.11,45.63-3.25,31.99,13.69,64.25,43.23,84.42-56.43-31.96-64.09-89.62-23.93-139.51Z"/>
            <path class="cls-1" d="M300.16,481.78c1.94,4.83,8.4,19.05,24.11,27.41,2.78,1.48,25.78,13.23,46.65.66,12.44-7.49,17.28-19.51,18.81-23.87-10.83,3.48-25.6,6.44-42.35,3.89-20.09-3.06-35.91-12.97-36.25-12.26-.25.52,8.32,6.17,18.75,10.26,9.54,3.74,27.58,8.9,52.61,4.7-1.95,2.28-16.03,18.2-38.54,17.79-18.37-.34-35.28-11.42-43.79-28.57Z"/>
            <path class="cls-1" d="M297.81,477.86c-1.13,4.35-5.91,20.56-21.89,30.73-1.99,1.27-24.48,15.04-46.52,3.6-12.88-6.69-18.48-18.38-20.28-22.64,11.26,2.96,26.18,4.99,42.51,1.21,18.84-4.36,33.33-15.01,33.77-14.25.33.56-7.34,6.6-16.43,11.15-8.3,4.16-25.92,11.14-52.21,8.01,1.97,2.06,17.14,17.4,39.58,15.32,18.57-1.72,34.78-14.68,41.46-33.12Z"/>
            <path class="cls-5" d="M426.44,312.71c-7.07,1.32-20.03,4.74-32.64,14.75-10.12,8.03-15.43,16.32-15.19,16.53.35.32,12.33-18.45,32.88-22.92,4.46-.97,8.36-1.06,11.23-.93.23,7.49.04,32.14-17.29,55.83-17.77,24.27-41.99,31.74-49.12,33.66,49.66-12.64,77.63-45.67,70.13-96.93Z"/>
            <path class="cls-7" d="M391.98,483.84c36.81,8.05,65.22,3.54,85.18-28.53-11.56-7.65-23.77-10.1-32.56-10.79,5.58.88,12.67,2.68,20.16,6.53,2.67,1.37,5.05,2.82,7.17,4.27-4.38,5.94-13.14,16.09-27.6,23.18-23.39,11.46-45.54,7-52.34,5.34Z"/>
            <path class="cls-5" d="M147.15,318.87c7.16.68,20.37,2.94,33.82,11.78,10.79,7.1,16.82,14.88,16.6,15.11-.32.35-13.92-17.28-34.79-19.9-4.53-.57-8.42-.31-11.27.08.44,7.48,2.82,32.02,22.2,54.06,19.86,22.59,44.65,27.88,51.92,29.16-50.59-8.17-81.39-38.57-78.48-90.3Z"/>
          </g>
          <path class="cls-6" d="M344.1,282.26c-9.72,7.41-19.8,25.15-22.58,37.25,2.16-5.59,6.3-13.92,14.3-21.37,2.85-2.66,5.7-4.75,8.32-6.39,6.99,6.79,20.01,21.52,24.31,43.65,6.14,31.57-8.02,65.22-35.93,87.96,53.91-36.88,56.45-94.99,11.58-141.09Z"/>
          <path class="cls-7" d="M205.5,485.62c-35.94,11.3-64.64,9.34-87.38-20.83,10.83-8.65,22.78-12.17,31.47-13.65-5.48,1.37-12.38,3.8-19.5,8.3-2.54,1.6-4.78,3.26-6.76,4.9,4.89,5.53,14.53,14.86,29.56,20.63,24.31,9.34,45.98,2.91,52.61.66Z"/>
        </g>
        <path class="cls-4" d="M255.51,443.59c6.33-16.95,14.29-28.76,11.65-48.28-1.45-10.78-5.87-22.47-13.1-36.09-17.13-32.25.5-57.87,15.41-79.53,4.75-6.9,9.2-13.36,11.84-19.2,3.41-7.53,4.31-16.95,8.08-20.3,3.62,3.31,5.01,10.98,8.83,19.92,2.99,7,8.03,13.99,13.28,21.27,14.79,20.53,31.05,43.08,15.08,77.85-6.52,14.18-11.08,26-12.87,36.72-3.64,21.83,5.44,30.26,10.28,49.32,10.53-1.75,23.7-2.82,35.9-1.71,12.25,1.12,38.18,7.32,34.02,24.21-2.05,8.32-12.77,13.21-20.06,15.56-27.81,8.96-53.07,1.9-77.56-12.16-8.86-5.09-18.41-10.62-32.12-15.29-10.18-3.29-21.16-5.03-31.95-4.65-16.15.55-50.57,10.48-19.57,22.39,15.16,5.82,36.14,1.85,52.34-1.83,6.19-.82,12.39-1.62,20.51,3.96-21.78,5.49-27.78,9.39-51.46,9.56-9.3.06-18.46-.99-26.13-3.72-7.61-2.72-19.25-9.98-18.25-19.29,1.61-14.95,27.83-19.83,39.77-20.51,9.11-.52,18.31.18,26.04,1.8h0ZM301.98,463.46c20.41,11.34,46.08,18.14,68.97,10.76,28.83-9.29,3.17-21.53-10.6-22.24-12.59-.65-28.41-.09-40.34,3.68-7.73,2.44-10.12,3.25-22.05-3.88,4.88-1.27,10.64-3.53,16.98-4.82-6.23-20.49-14.64-28.63-10.66-52.54,1.96-11.78,6.78-24.3,13.6-39.15,13.65-29.73-.9-49.92-14.15-68.3-5.35-7.42-10.51-14.58-13.9-22.11-3.01,6.49-7.6,13.17-12.48,20.26-13.4,19.46-29.24,42.49-14.84,69.6,7.75,14.6,12.52,27.33,14.13,39.31,2.92,21.62-4.76,33.49-11.83,51.98,13.65,4.38,24.83,10.57,37.18,17.44h0ZM291.22,303.91c-13.46-.06-21,14.15-21.05,26.16-.05,12.02,7.36,26.29,20.82,26.35s20.99-14.15,21.04-26.16c.05-12.02-7.36-26.29-20.81-26.35h0ZM291.18,313.5c-7.83-.03-11.39,10.2-11.42,16.62-.03,6.42,3.45,16.68,11.28,16.72s11.38-10.2,11.41-16.62c.03-6.41-3.44-16.68-11.27-16.72Z"/>
      </g>
      <text class="cls-9" transform="translate(163.54 552.04)"><tspan x="0" y="0">YOGA &amp; MEDITATION</tspan></text>
    </g>
  </g>
  <text/>
</svg>