<?xml version="1.0" encoding="UTF-8"?>
<svg id="Layer_1" data-name="Layer 1" xmlns="http://www.w3.org/2000/svg" version="1.1" viewBox="0 0 595.28 841.89">
  <defs>
    <style>
      .cls-1 {
        fill: #bca1c7;
      }

      .cls-1, .cls-2, .cls-3, .cls-4, .cls-5 {
        stroke-width: 0px;
      }

      .cls-1, .cls-3, .cls-4, .cls-5 {
        fill-rule: evenodd;
      }

      .cls-2, .cls-6 {
        fill: #231f20;
      }

      .cls-3 {
        fill: #fad1e3;
      }

      .cls-7 {
        opacity: .99;
      }

      .cls-6 {
        font-family: Queensides-Light, Queensides;
        font-size: 11px;
        font-weight: 300;
      }

      .cls-4 {
        fill: #dcae85;
      }

      .cls-5 {
        fill: #e9ccb1;
      }
    </style>
  </defs>
  <g>
    <g>
      <g>
        <path class="cls-1" d="M309.89,261.79c-1.92-12-12.51-20.47-21.84-25.96-5.97,3.94-17.2,12.67-19.09,25.93-2.32,16.29,10.74,30.5,10.76,30.49.01,0-7.15-9.34-7.79-23.2-.3-6.47.95-11.18,1.27-12.32,3.29-11.74,11.55-18.48,14.86-20.9,3.28,1.92,12.15,7.69,16.74,19.09,2.7,6.71,2.75,12.5,2.69,14.6-.33,13.29-8.06,22.48-8.18,22.42-.16-.08,13.07-14.57,10.58-30.14Z"/>
        <path class="cls-5" d="M287.62,297.49c-7.33-7.27-14.54-11.24-19.22-13.36-6-2.73-10.51-4.78-16.64-4.47-6.4.32-8.33,2.89-12.93,2.18-3.49-.54-8.22-2.92-13.1-11.48-.32,13.03,6.4,25.04,17.37,31.25,8.13,4.6,18.54,5.41,30.03,1.38-3.21.93-13.35,3.4-24.39-1.34-16.53-7.09-20.77-24.19-21.21-26.12,2.47,3.43,6.49,7.78,12.1,8.61,4.57.68,5.61-1.65,11.23-2.43,10.43-1.46,20.16,4.7,29.34,10.52,3.28,2.08,5.82,4,7.43,5.27Z"/>
        <path class="cls-5" d="M299.78,292.95c5.17-5.88,10.44-9.48,14.08-11.57,4.97-2.86,9.68-5.68,16.17-5.93,6.4-.25,8.56,2.14,13.08,1.02,3.43-.85,7.92-3.64,12.02-12.6,1.48,12.95-4.14,25.51-14.52,32.67-7.69,5.31-17.98,7.04-29.79,4.05,3.28.64,13.6,2.19,24.18-3.51,15.84-8.54,18.53-25.94,18.8-27.9-2.16,3.64-5.77,8.32-11.29,9.65-4.49,1.08-5.74-1.14-11.4-1.43-10.64-.54-19.97,6.72-28.29,13.09-1.31,1-2.36,1.87-3.06,2.46Z"/>
        <path class="cls-3" d="M264.49,228.7c1.45.86,4.15,2.75,6.04,6.18.92,1.67,1.4,3.25,1.65,4.48-.71-1.25-1.92-3.03-3.88-4.67-1.26-1.05-2.48-1.76-3.48-2.24-2.5,2.93-7.08,9.22-7.99,18.13-1.29,12.71,5.44,25.52,17.17,33.54-22.42-12.7-25.46-35.6-9.5-55.42Z"/>
        <path class="cls-3" d="M292.54,305.9c.77,1.92,3.34,7.57,9.58,10.89,1.11.59,10.24,5.26,18.53.26,4.94-2.98,6.87-7.75,7.47-9.48-4.3,1.38-10.17,2.56-16.82,1.54-7.98-1.22-14.26-5.15-14.4-4.87-.1.21,3.31,2.45,7.45,4.08,3.79,1.49,10.96,3.53,20.9,1.87-.78.91-6.37,7.23-15.31,7.07-7.3-.13-14.01-4.54-17.39-11.35Z"/>
        <path class="cls-3" d="M291.61,304.34c-.45,1.73-2.35,8.17-8.7,12.21-.79.5-9.73,5.98-18.48,1.43-5.12-2.66-7.34-7.3-8.05-8.99,4.47,1.17,10.4,1.98,16.89.48,7.49-1.73,13.24-5.96,13.42-5.66.13.22-2.92,2.62-6.53,4.43-3.3,1.65-10.3,4.42-20.74,3.18.78.82,6.81,6.91,15.72,6.08,7.38-.68,13.82-5.83,16.47-13.16Z"/>
        <path class="cls-1" d="M342.71,238.74c-2.81.52-7.96,1.88-12.96,5.86-4.02,3.19-6.13,6.48-6.04,6.57.14.13,4.9-7.33,13.06-9.1,1.77-.38,3.32-.42,4.46-.37.09,2.98.02,12.77-6.87,22.18-7.06,9.64-16.68,12.61-19.51,13.37,19.73-5.02,30.84-18.14,27.86-38.5Z"/>
        <path class="cls-1" d="M330.29,303.19c14.62,3.2,25.91,1.41,33.83-11.34-4.59-3.04-9.44-4.01-12.94-4.29,2.22.35,5.03,1.07,8.01,2.59,1.06.54,2.01,1.12,2.85,1.7-1.74,2.36-5.22,6.39-10.96,9.21-9.29,4.55-18.09,2.78-20.79,2.12Z"/>
        <path class="cls-1" d="M233.38,241.18c2.85.27,8.09,1.17,13.43,4.68,4.29,2.82,6.68,5.91,6.6,6-.13.14-5.53-6.86-13.82-7.9-1.8-.23-3.35-.12-4.48.03.17,2.97,1.12,12.72,8.82,21.48,7.89,8.97,17.74,11.07,20.62,11.58-20.09-3.25-32.33-15.32-31.17-35.87Z"/>
      </g>
      <path class="cls-3" d="M310,226.64c-3.86,2.94-7.86,9.99-8.97,14.8.86-2.22,2.5-5.53,5.68-8.49,1.13-1.06,2.26-1.89,3.3-2.54,2.78,2.7,7.95,8.55,9.66,17.34,2.44,12.54-3.19,25.91-14.27,34.94,21.41-14.65,22.42-37.74,4.6-56.05Z"/>
      <path class="cls-1" d="M254.94,307.42c-14.28,4.49-25.68,3.71-34.71-8.28,4.3-3.44,9.05-4.84,12.5-5.42-2.18.54-4.92,1.51-7.75,3.3-1.01.64-1.9,1.3-2.68,1.94,1.94,2.2,5.77,5.9,11.74,8.19,9.66,3.71,18.26,1.16,20.9.26Z"/>
    </g>
    <path class="cls-4" d="M275.81,289.74c2.18-6.85,5.11-11.69,3.68-19.38-.79-4.25-2.77-8.8-5.9-14.06-7.42-12.46-.93-22.97,4.57-31.85,1.75-2.83,3.39-5.48,4.32-7.85,1.21-3.05,1.38-6.81,2.81-8.21,1.5,1.24,2.2,4.26,3.89,7.73,1.32,2.72,3.46,5.4,5.68,8.18,6.27,7.86,13.16,16.49,7.5,30.6-2.31,5.75-3.89,10.53-4.39,14.82-1.02,8.73,2.75,11.9,5.04,19.37,4.15-.9,9.35-1.58,14.21-1.38,4.88.21,15.29,2.16,13.97,8.94-.65,3.34-4.81,5.49-7.66,6.56-10.86,4.1-21.02,1.79-31.01-3.32-3.61-1.85-7.51-3.85-13.04-5.44-4.1-1.11-8.49-1.59-12.77-1.23-6.39.53-19.86,5.14-7.33,9.26,6.13,2.01,14.38.03,20.73-1.74,2.44-.45,4.88-.88,8.22,1.17-8.54,2.6-10.84,4.27-20.23,4.79-3.69.2-7.34-.03-10.44-.97-3.07-.93-7.83-3.59-7.62-7.3.35-5.96,10.66-8.41,15.38-8.91,3.6-.39,7.27-.28,10.37.21h0ZM294.64,296.72c8.32,4.1,18.63,6.3,27.57,2.93,11.26-4.25.84-8.6-4.64-8.62-5.01-.01-11.27.52-15.94,2.25-3.02,1.12-3.95,1.49-8.82-1.11,1.91-.6,4.15-1.61,6.64-2.24-2.87-8.01-6.37-11.08-5.25-20.64.55-4.71,2.22-9.77,4.63-15.8,4.84-12.06-1.33-19.79-6.94-26.82-2.27-2.84-4.45-5.58-5.95-8.5-1.07,2.64-2.76,5.37-4.56,8.28-4.94,7.98-10.78,17.43-4.53,27.9,3.36,5.64,5.5,10.6,6.37,15.32,1.58,8.52-1.24,13.38-3.68,20.85,5.5,1.47,10.06,3.71,15.09,6.2h0ZM287.26,233.62c-5.34.24-8.06,6.02-7.84,10.79s3.43,10.29,8.77,10.05,8.05-6.02,7.84-10.79-3.43-10.29-8.77-10.05h0ZM287.43,237.43c-3.11.14-4.32,4.27-4.21,6.81s1.69,6.55,4.8,6.41,4.32-4.27,4.2-6.81-1.69-6.55-4.79-6.41Z"/>
  </g>
  <g class="cls-7">
    <g>
      <path class="cls-2" d="M246.16,216.79c-1.52,1.07-2.97,2.2-4.37,3.39-.06.04-.11.09-.17.13-2.38-2.56-4.84-5.08-7.37-7.58.13-.09,1.74-1.6,5.26-4.08.1.12.2.24.3.35-1.69,1.18-3.31,2.43-4.86,3.74,1.03,1.03,2.05,2.06,3.05,3.1,1.46-1.23,2.98-2.4,4.56-3.51.1.12.19.23.29.35-1.57,1.1-3.09,2.27-4.54,3.49,1.12,1.17,2.23,2.34,3.32,3.53,1.35-1.14,2.76-2.23,4.23-3.26.1.12.19.24.29.36Z"/>
      <path class="cls-2" d="M250.97,213.72c-.12.07-.24.14-.35.2-3.27-2.08-6.77-3.99-10.49-5.7.16-.11.31-.21.47-.32,3.47,1.63,6.75,3.43,9.83,5.38-.56-3.41-.97-6.85-1.2-10.33.17-.09.34-.17.52-.26.22,3.71.64,7.39,1.23,11.02Z"/>
      <path class="cls-2" d="M261.27,208.89c-1.82.68-3.59,1.42-5.32,2.23-.07.03-.14.06-.2.09-1.69-2.97-3.43-5.93-5.24-8.87.16-.06,2.21-1.11,6.46-2.69.07.13.13.27.2.4-2.03.74-4.02,1.56-5.95,2.45.73,1.21,1.45,2.43,2.16,3.64,1.81-.84,3.67-1.61,5.57-2.31.06.13.13.27.19.4-1.89.7-3.74,1.46-5.54,2.29.79,1.37,1.57,2.73,2.34,4.1,1.68-.78,3.39-1.49,5.15-2.15.06.14.12.27.19.41Z"/>
      <path class="cls-2" d="M269.06,206.47c-.18.05-.36.09-.55.14-1.35-1.1-2.76-2.18-4.23-3.22-.43.17-.87.32-1.32.47-.27.08-.53.17-.8.25-.2.06-.44.14-.71.23.57,1.3,1.13,2.59,1.68,3.89-.15.05-.29.1-.44.15-1.34-3.1-2.73-6.2-4.17-9.29.1-.03.19-.07.29-.1.35-.12.64-.22.9-.31.3-.1.6-.2.9-.3.5-.16,1-.28,1.5-.37.5-.09,1.01-.12,1.53-.09.52.03,1.05.16,1.59.37.61.24,1.03.6,1.29,1.06.07.12.13.25.17.38.09.25.12.52.11.8-.02.41-.15.81-.38,1.21-.33.57-.88,1.05-1.64,1.44,1.4,1,2.74,2.04,4.03,3.1.09.07.17.13.26.2ZM262.75,203.46c.52-.17,1.02-.35,1.5-.54.03-.01.05-.02.08-.03.01,0,.03-.02.04-.02.02,0,.04-.02.07-.03.71-.35,1.21-.77,1.52-1.29.19-.34.3-.69.31-1.03,0-.22-.02-.44-.09-.66-.04-.11-.09-.21-.14-.31-.22-.37-.57-.66-1.06-.86-.49-.18-.97-.29-1.43-.32-.47-.03-.93,0-1.39.09-.46.09-.92.2-1.38.35-.52.17-1.03.35-1.55.53.7,1.53,1.38,3.06,2.06,4.6.21-.07.45-.15.72-.23.25-.08.51-.16.76-.24Z"/>
      <path class="cls-2" d="M283.62,204.19c-.16.01-.32.02-.49.03-3.09-2.85-6.57-5.54-10.44-8.01.72,3.01,1.42,6.02,2.1,9.03-.16.03-.32.06-.48.09-.75-3.23-1.53-6.47-2.34-9.69.19-.03.37-.07.56-.1,3.91,2.46,7.42,5.14,10.54,8-.28-3.05-.58-6.11-.88-9.16.19-.01.38-.03.56-.04.3,3.28.59,6.57.87,9.85Z"/>
      <path class="cls-2" d="M293.26,204.12c-2-.1-4.01-.13-6.02-.08-.08,0-.15,0-.23,0-.11-3.29-.21-6.58-.33-9.87.18,0,2.63-.13,7.33.09-.01.14-.02.29-.03.43-2.24-.11-4.49-.15-6.74-.11.04,1.35.07,2.7.11,4.05,2.1-.04,4.21,0,6.3.1,0,.14-.02.28-.03.43-2.08-.1-4.17-.14-6.26-.1.04,1.51.08,3.03.11,4.54,1.94-.04,3.88,0,5.82.09,0,.14-.02.29-.03.43Z"/>
      <path class="cls-2" d="M304.48,205.45c-.35-3.16-.82-6.31-1.44-9.46-1.84,2.79-3.5,5.63-5.01,8.51-.15-.02-.3-.04-.45-.05-.73-3.39-1.63-6.78-2.71-10.15.2.01.39.03.59.04.97,3.11,1.78,6.23,2.46,9.37,1.52-2.91,3.21-5.79,5.08-8.62.14.02.29.04.43.06.63,3.19,1.11,6.39,1.46,9.59,1.8-2.77,3.77-5.5,5.91-8.17.19.04.38.09.57.13-2.35,2.88-4.49,5.83-6.44,8.83-.15-.03-.3-.05-.45-.08Z"/>
      <path class="cls-2" d="M317,208.93c-.64-.24-1.17-.6-1.58-1.08-.41-.48-.68-1.02-.81-1.63-.12-.61-.07-1.21.17-1.81.05-.11.09-.21.14-.32.16.05.31.11.47.16-.04.1-.09.2-.13.3-.22.54-.27,1.07-.16,1.6.11.53.35,1,.71,1.42.36.42.82.73,1.39.94.42.16.85.24,1.29.24.44,0,.86-.07,1.28-.21.49-.17.89-.39,1.2-.68.31-.29.58-.64.8-1.06,1.02-1.91,2.06-3.81,3.12-5.71.16.07.33.14.49.21-1.07,1.89-2.13,3.78-3.15,5.68-.53.97-1.3,1.62-2.29,1.97-.47.16-.95.24-1.45.24-.5,0-.99-.09-1.47-.27Z"/>
      <path class="cls-2" d="M326.81,213.76c-.88-.5-1.56-1.15-2.06-1.96-.5-.81-.78-1.68-.82-2.63-.05-.94.16-1.85.67-2.73.51-.88,1.23-1.56,2.17-2.04.94-.47,1.99-.71,3.13-.69,1.13.02,2.23.32,3.26.9,1.03.58,1.8,1.33,2.29,2.24.49.9.69,1.84.6,2.8-.09.96-.47,1.84-1.13,2.64-.65.79-1.45,1.37-2.39,1.76-.94.38-1.9.55-2.91.51-1-.04-1.93-.31-2.82-.81ZM327.06,213.38c.82.47,1.68.71,2.6.75.93.04,1.81-.12,2.68-.48.86-.35,1.6-.89,2.19-1.62.45-.55.75-1.15.91-1.8.16-.64.16-1.29.02-1.94-.14-.65-.42-1.27-.86-1.84-.44-.57-1.01-1.06-1.71-1.46-.93-.53-1.93-.8-2.96-.82-1.04-.02-1.99.19-2.86.62-.87.43-1.54,1.06-2.01,1.87-.47.8-.68,1.64-.63,2.5.04.87.3,1.67.75,2.42.45.75,1.08,1.34,1.9,1.81Z"/>
      <path class="cls-2" d="M334.13,218.35c-.12-.09-.24-.18-.36-.27,1.12-1.33,2.26-2.65,3.42-3.96.1-.73.17-1.29.22-1.69.05-.39.08-.7.1-.91.02-.21.04-.42.06-.61.02-.21.04-.5.08-.87.04-.38.08-.94.13-1.68,0-.09,0-.19,0-.28.17.11.34.23.51.34-.14,1.84-.34,3.66-.59,5.47,1.87-.57,3.78-1.09,5.75-1.54.15.13.29.25.44.38-2.17.48-4.28,1.04-6.33,1.68-1.17,1.31-2.32,2.62-3.45,3.95Z"/>
    </g>
  </g>
  <text class="cls-6" transform="translate(243.92 334.16)"><tspan x="0" y="0">YOGA &amp; MEDITATION</tspan></text>
</svg>